<svg width="64" height="64" viewBox="0 0 18 18" xmlns="http://www.w3.org/2000/svg"><path d="M9 0C4.03 0 0 4.134 0 9.229c0 4.078 2.58 7.534 6.155 8.755a.706.706 0 0 0 .153.016c.334 0 .462-.245.462-.458 0-.221-.008-.8-.012-1.571a4.114 4.114 0 0 1-.908.108c-1.732 0-2.125-1.346-2.125-1.346-.41-1.064-1-1.35-1-1.35-.784-.55-.005-.566.055-.566h.004c.904.08 1.378.956 1.378.956.45.788 1.053 1.009 1.592 1.009a2.53 2.53 0 0 0 1.028-.241c.08-.595.314-1 .57-1.234-1.996-.233-4.098-1.024-4.098-4.56 0-1.009.35-1.832.925-2.475-.093-.233-.402-1.173.088-2.443 0 0 .064-.02.2-.02.326 0 1.062.124 2.275.968a8.431 8.431 0 0 1 2.254-.31 8.453 8.453 0 0 1 2.254.31c1.213-.844 1.949-.968 2.274-.968.137 0 .201.02.201.02.49 1.27.18 2.21.088 2.443.575.647.925 1.47.925 2.475 0 3.544-2.106 4.323-4.11 4.552.32.285.61.848.61 1.708 0 1.233-.012 2.23-.012 2.53 0 .218.124.463.458.463a.778.778 0 0 0 .16-.016C15.425 16.762 18 13.304 18 9.229 18 4.134 13.97 0 9 0z" fill="#1E2327"/></svg>